# xmcd
#
# Track frame offsets:
#	150
#	30329
#	86007
#	154292
#	190924
#	198080
#	224744
#	262846
#	291003
#
# Disc length: 4042 seconds
#
# Revision: 0
# Processed by: cddbd v1.5.2PL0 Copyright (c) Steve Scherf et al.
# Submitted via: audiograbber 1.83.01
#
DISCID=7a0fc809
DTITLE=Grateful Dead - 93-06-08 The Palace, Auburn Hills MI
DYEAR=1900
DGENRE=
TTITLE0=Saint Of Circumstance
TTITLE1=He's Gone
TTITLE2=Drums
TTITLE3=Space
TTITLE4=All Along The Watchtower Tease
TTITLE5=The Last Time
TTITLE6=Standing On The Moon
TTITLE7=Turn On Your Lovelight
TTITLE8=I Fought The Law
EXTD=
EXTT0=
EXTT1=
EXTT2=
EXTT3=
EXTT4=
EXTT5=
EXTT6=
EXTT7=
EXTT8=
PLAYORDER=
